<svg xmlns="http://www.w3.org/2000/svg" xmlns:xlink="http://www.w3.org/1999/xlink" width="500" zoomAndPan="magnify" viewBox="0 0 375 374.999991" height="500" preserveAspectRatio="xMidYMid meet" version="1.0"><defs><clipPath id="6681d52950"><path d="M 23.316406 13 L 358.566406 13 L 358.566406 369 L 23.316406 369 Z M 23.316406 13 " clip-rule="nonzero"/></clipPath></defs><g clip-path="url(#6681d52950)"><path fill="#150e60" d="M 61.148438 368.9375 L 268.9375 368.9375 C 289.796875 368.9375 306.753906 351.972656 306.753906 331.113281 L 306.753906 316.988281 L 320.878906 316.988281 C 341.738281 316.988281 358.707031 300.023438 358.707031 279.164062 L 358.707031 51.378906 C 358.707031 30.519531 341.738281 13.554688 320.878906 13.554688 L 113.089844 13.554688 C 92.230469 13.554688 75.273438 30.519531 75.273438 51.378906 L 75.273438 65.503906 L 61.148438 65.503906 C 40.289062 65.503906 23.316406 82.46875 23.316406 103.328125 L 23.316406 331.113281 C 23.316406 351.972656 40.289062 368.9375 61.148438 368.9375 Z M 98.964844 51.378906 C 98.964844 43.585938 105.304688 37.246094 113.089844 37.246094 L 320.878906 37.246094 C 328.675781 37.246094 335.015625 43.585938 335.015625 51.378906 L 335.015625 279.164062 C 335.015625 286.957031 328.675781 293.296875 320.878906 293.296875 L 306.753906 293.296875 L 306.753906 103.328125 C 306.753906 82.46875 289.796875 65.503906 268.9375 65.503906 L 98.964844 65.503906 Z M 47.011719 103.328125 C 47.011719 95.535156 53.347656 89.195312 61.148438 89.195312 L 268.9375 89.195312 C 276.722656 89.195312 283.0625 95.535156 283.0625 103.328125 L 283.0625 331.113281 C 283.0625 338.90625 276.722656 345.246094 268.9375 345.246094 L 61.148438 345.246094 C 53.351562 345.246094 47.011719 338.90625 47.011719 331.113281 Z M 47.011719 103.328125 " fill-opacity="1" fill-rule="nonzero"/></g><path fill="#150e60" d="M 103.058594 229.070312 L 153.195312 229.070312 L 153.195312 279.199219 C 153.195312 285.742188 158.496094 291.046875 165.042969 291.046875 C 171.589844 291.046875 176.886719 285.742188 176.886719 279.199219 L 176.886719 229.070312 L 227.015625 229.070312 C 233.5625 229.070312 238.859375 223.765625 238.859375 217.222656 C 238.859375 210.679688 233.5625 205.375 227.015625 205.375 L 176.886719 205.375 L 176.886719 155.238281 C 176.886719 148.699219 171.589844 143.394531 165.042969 143.394531 C 158.496094 143.394531 153.195312 148.699219 153.195312 155.238281 L 153.195312 205.375 L 103.058594 205.375 C 96.511719 205.375 91.210938 210.679688 91.210938 217.222656 C 91.210938 223.765625 96.511719 229.070312 103.058594 229.070312 Z M 103.058594 229.070312 " fill-opacity="1" fill-rule="nonzero"/></svg>