<svg xmlns="http://www.w3.org/2000/svg" xmlns:xlink="http://www.w3.org/1999/xlink" width="500" zoomAndPan="magnify" viewBox="0 0 375 374.999991" height="500" preserveAspectRatio="xMidYMid meet" version="1.0"><defs><clipPath id="e228734aef"><path d="M 8.597656 8.597656 L 366.347656 8.597656 L 366.347656 366.347656 L 8.597656 366.347656 Z M 8.597656 8.597656 " clip-rule="nonzero"/></clipPath></defs><g clip-path="url(#e228734aef)"><path fill="#150e60" d="M 187.695312 8.757812 C 89.03125 8.757812 8.761719 89.03125 8.761719 187.695312 C 8.761719 286.355469 89.03125 366.628906 187.695312 366.628906 C 286.355469 366.628906 366.625 286.355469 366.625 187.695312 C 366.625 89.03125 286.355469 8.757812 187.695312 8.757812 Z M 187.695312 350.707031 C 97.8125 350.707031 24.683594 277.582031 24.683594 187.695312 C 24.683594 97.808594 97.8125 24.679688 187.695312 24.679688 C 277.578125 24.679688 350.703125 97.808594 350.703125 187.695312 C 350.703125 277.582031 277.578125 350.707031 187.695312 350.707031 Z M 187.695312 350.707031 " fill-opacity="1" fill-rule="nonzero"/></g><path fill="#150e60" d="M 187.695312 30.539062 C 101.039062 30.539062 30.535156 101.039062 30.535156 187.695312 C 30.535156 274.347656 101.035156 344.851562 187.695312 344.851562 C 274.351562 344.851562 344.855469 274.347656 344.855469 187.695312 C 344.855469 101.039062 274.347656 30.539062 187.695312 30.539062 Z M 187.695312 328.933594 C 109.8125 328.933594 46.453125 265.574219 46.453125 187.699219 C 46.453125 109.824219 109.8125 46.457031 187.695312 46.457031 C 265.574219 46.457031 328.933594 109.820312 328.933594 187.695312 C 328.933594 265.570312 265.574219 328.929688 187.695312 328.929688 Z M 187.695312 328.933594 " fill-opacity="1" fill-rule="nonzero"/><path fill="#150e60" d="M 279.4375 95.953125 C 276.90625 93.414062 272.972656 92.890625 269.863281 94.667969 L 160.214844 157.246094 C 158.980469 157.957031 157.957031 158.984375 157.246094 160.214844 L 94.667969 269.863281 C 92.886719 272.980469 93.414062 276.898438 95.953125 279.4375 C 97.484375 280.972656 99.523438 281.769531 101.582031 281.769531 C 102.933594 281.769531 104.292969 281.425781 105.527344 280.722656 L 215.175781 218.140625 C 216.414062 217.433594 217.4375 216.40625 218.144531 215.171875 L 280.726562 105.523438 C 282.503906 102.40625 281.980469 98.488281 279.441406 95.953125 Z M 165.90625 177.160156 L 198.230469 209.480469 L 122.933594 252.457031 L 165.902344 177.160156 Z M 209.484375 198.226562 L 177.164062 165.902344 L 252.460938 122.929688 L 209.488281 198.226562 Z M 209.484375 198.226562 " fill-opacity="1" fill-rule="nonzero"/><path fill="#150e60" d="M 187.695312 100.382812 C 192.085938 100.382812 195.652344 96.816406 195.652344 92.421875 L 195.652344 64.734375 C 195.652344 60.339844 192.085938 56.773438 187.695312 56.773438 C 183.300781 56.773438 179.734375 60.339844 179.734375 64.734375 L 179.734375 92.421875 C 179.734375 96.816406 183.300781 100.382812 187.695312 100.382812 Z M 187.695312 100.382812 " fill-opacity="1" fill-rule="nonzero"/><path fill="#150e60" d="M 187.695312 275.007812 C 183.300781 275.007812 179.734375 278.570312 179.734375 282.964844 L 179.734375 310.652344 C 179.734375 315.046875 183.300781 318.613281 187.695312 318.613281 C 192.085938 318.613281 195.652344 315.046875 195.652344 310.652344 L 195.652344 282.964844 C 195.652344 278.570312 192.085938 275.007812 187.695312 275.007812 Z M 187.695312 275.007812 " fill-opacity="1" fill-rule="nonzero"/><path fill="#150e60" d="M 310.660156 179.734375 L 282.964844 179.734375 C 278.570312 179.734375 275.007812 183.300781 275.007812 187.695312 C 275.007812 192.085938 278.570312 195.652344 282.964844 195.652344 L 310.660156 195.652344 C 315.050781 195.652344 318.617188 192.085938 318.617188 187.695312 C 318.617188 183.300781 315.050781 179.734375 310.660156 179.734375 Z M 310.660156 179.734375 " fill-opacity="1" fill-rule="nonzero"/><path fill="#150e60" d="M 100.382812 187.695312 C 100.382812 183.300781 96.816406 179.734375 92.421875 179.734375 L 64.730469 179.734375 C 60.335938 179.734375 56.769531 183.300781 56.769531 187.695312 C 56.769531 192.085938 60.335938 195.652344 64.730469 195.652344 L 92.421875 195.652344 C 96.816406 195.652344 100.382812 192.085938 100.382812 187.695312 Z M 100.382812 187.695312 " fill-opacity="1" fill-rule="nonzero"/><path fill="#150e60" d="M 260.691406 249.433594 C 257.585938 246.328125 252.539062 246.328125 249.433594 249.433594 C 246.328125 252.542969 246.328125 257.582031 249.433594 260.691406 L 269.015625 280.269531 C 270.566406 281.828125 272.605469 282.605469 274.644531 282.605469 C 276.679688 282.605469 278.71875 281.828125 280.269531 280.269531 C 283.378906 277.164062 283.378906 272.125 280.269531 269.015625 Z M 260.691406 249.433594 " fill-opacity="1" fill-rule="nonzero"/><path fill="#150e60" d="M 114.699219 125.953125 C 116.25 127.507812 118.289062 128.285156 120.324219 128.285156 C 122.363281 128.285156 124.402344 127.507812 125.953125 125.953125 C 129.0625 122.84375 129.0625 117.804688 125.953125 114.699219 L 106.371094 95.117188 C 103.265625 92.007812 98.222656 92.007812 95.117188 95.117188 C 92.007812 98.226562 92.007812 103.261719 95.117188 106.371094 Z M 114.699219 125.953125 " fill-opacity="1" fill-rule="nonzero"/></svg>